HIERARCHY
ROOT Hips
{
    OFFSET 0.000000 0.000000 0.000000
    CHANNELS 6 Xposition Yposition Zposition Zrotation Xrotation Yrotation
    JOINT Spine
    {
        OFFSET -0.000000 7.236184 0.000000
        CHANNELS 3 Zrotation Xrotation Yrotation
        JOINT Spine1
        {
            OFFSET -0.000000 20.420147 0.000000
            CHANNELS 3 Zrotation Xrotation Yrotation
            JOINT Neck
            {
                OFFSET -0.000000 20.336288 1.848754
                CHANNELS 3 Zrotation Xrotation Yrotation
                JOINT Head
                {
                    OFFSET -0.000000 12.354461 -1.764923
                    CHANNELS 3 Zrotation Xrotation Yrotation
                    End Site
                    {
                        OFFSET -0.000000 22.061537 0.000000
                    }
                }
            }
            JOINT LeftShoulder
            {
                OFFSET 3.573296 18.396038 -0.314103
                CHANNELS 3 Zrotation Xrotation Yrotation
                JOINT LeftArm
                {
                    OFFSET 10.880760 0.000000 0.000000
                    CHANNELS 3 Zrotation Xrotation Yrotation
                    JOINT LeftForeArm
                    {
                        OFFSET 27.185530 0.000000 0.000000
                        CHANNELS 3 Zrotation Xrotation Yrotation
                        JOINT LeftHand
                        {
                            OFFSET 27.825975 0.000000 0.000000
                            CHANNELS 3 Zrotation Xrotation Yrotation
                            End Site
                            {
                                OFFSET 13.236923 0.000000 0.000000
                            }
                        }
                    }
                }
            }
            JOINT RightShoulder
            {
                OFFSET -3.474926 18.396038 -0.314103
                CHANNELS 3 Zrotation Xrotation Yrotation
                JOINT RightArm
                {
                    OFFSET -10.880760 0.000000 0.000000
                    CHANNELS 3 Zrotation Xrotation Yrotation
                    JOINT RightForeArm
                    {
                        OFFSET -27.185530 0.000000 0.000000
                        CHANNELS 3 Zrotation Xrotation Yrotation
                        JOINT RightHand
                        {
                            OFFSET -27.825975 0.000000 0.000000
                            CHANNELS 3 Zrotation Xrotation Yrotation
                            End Site
                            {
                                OFFSET -13.236923 0.000000 0.000000
                            }
                        }
                    }
                }
            }
        }
    }
    JOINT LeftUpLeg
    {
        OFFSET 8.824615 0.000000 0.000000
        CHANNELS 3 Zrotation Xrotation Yrotation
        JOINT LeftLeg
        {
            OFFSET -0.000000 -35.111282 0.000000
            CHANNELS 3 Zrotation Xrotation Yrotation
            JOINT LeftFoot
            {
                OFFSET -0.000000 -42.324711 0.000000
                CHANNELS 3 Zrotation Xrotation Yrotation
                JOINT LeftToeBase
                {
                    OFFSET -0.000000 -5.735999 13.236923
                    CHANNELS 3 Zrotation Xrotation Yrotation
                    End Site
                    {
                        OFFSET -0.000000 0.000000 3.529846
                    }
                }
            }
        }
    }
    JOINT RightUpLeg
    {
        OFFSET -8.824615 0.000000 0.000000
        CHANNELS 3 Zrotation Xrotation Yrotation
        JOINT RightLeg
        {
            OFFSET -0.000000 -35.111282 0.000000
            CHANNELS 3 Zrotation Xrotation Yrotation
            JOINT RightFoot
            {
                OFFSET -0.000000 -42.324711 0.000000
                CHANNELS 3 Zrotation Xrotation Yrotation
                JOINT RightToeBase
                {
                    OFFSET -0.000000 -5.735999 13.236923
                    CHANNELS 3 Zrotation Xrotation Yrotation
                    End Site
                    {
                        OFFSET -0.000000 0.000000 3.529846
                    }
                }
            }
        }
    }
}
MOTION
Frames:    7
Frame Time:    0.008333
-8.382845    85.046021    100.283897    -1.619900    -9.510697    -170.066193    -4.484444    -15.796438    1.499584    -0.293491    5.749761    2.136776    0.324254    7.400063    -7.921733    10.032344    -9.646806    -6.022573    -0.793406    17.859005    2.973962    -59.816925    22.996050    -21.737974    1.297268    -7.335979    -9.921215    16.227491    -6.845938    2.673488    7.840313    18.469313    -6.289045    39.100937    43.269794    41.304886    -2.627645    -6.960318    18.110178    -14.660425    -6.203363    -2.666977    -0.008215    -10.982588    -8.159220    -0.330378    9.546815    -2.171240    -1.112116    -6.593053    -9.350273    -0.935422    0.341686    1.036242    -9.485713    -0.788937    -11.070017    1.912282    -1.010913    -5.926421    4.903154    -2.737997    -11.713790    0.500083    -0.078837    -0.540937    
-8.451186    85.037476    100.285629    -1.598910    -9.517373    -170.110306    -4.470289    -15.747595    1.529068    -0.319772    5.698357    2.163514    0.352381    7.315436    -7.935952    10.093809    -9.711664    -6.020630    -0.785097    17.828009    2.990176    -59.859905    22.640451    -21.542437    1.188514    -7.272010    -9.750497    16.008507    -6.810065    2.588697    7.831608    18.433651    -6.328126    38.956493    43.462452    41.192535    -2.788104    -7.103118    18.425182    -14.669672    -6.310944    -2.682400    -0.155205    -11.270451    -8.268951    -0.217002    10.080728    -1.941558    -1.090707    -6.787878    -9.431108    -0.946931    0.303266    1.049064    -9.524996    -0.810591    -11.043309    1.923051    -1.000014    -5.982151    4.994519    -2.720081    -11.654725    0.471928    -0.041138    -0.510455    
-8.519606    85.028755    100.287460    -1.577240    -9.523122    -170.156738    -4.456200    -15.698662    1.557778    -0.344756    5.647570    2.189424    0.381993    7.230592    -7.948714    10.152954    -9.776553    -6.017800    -0.775318    17.794506    3.004938    -59.898636    22.285561    -21.350084    1.080878    -7.209629    -9.576901    15.793539    -6.774413    2.508065    7.822850    18.397766    -6.367427    38.825802    43.643730    41.072784    -2.943281    -7.242347    18.733490    -14.681715    -6.415665    -2.693007    -0.300818    -11.557281    -8.378119    -0.106172    10.614513    -1.709059    -1.069976    -6.982421    -9.514132    -0.959806    0.266313    1.063398    -9.564250    -0.835430    -11.018590    1.934196    -0.983602    -6.036916    5.086091    -2.702311    -11.592743    0.443211    -0.003357    -0.479369    
-8.588280    85.019699    100.289551    -1.554182    -9.526921    -170.207626    -4.442073    -15.649134    1.585100    -0.367352    5.597594    2.213786    0.414353    7.145134    -7.958829    10.208221    -9.841114    -6.013330    -0.763282    17.756416    3.017028    -59.932384    21.930105    -21.161776    0.973659    -7.149715    -9.398323    15.585572    -6.739604    2.433594    7.814431    18.361685    -6.407259    38.717358    43.805603    40.940384    -3.088712    -7.375450    19.031391    -14.698971    -6.516241    -2.695389    -0.443790    -11.842423    -8.484934    0.001686    11.148743    -1.472094    -1.049658    -7.176895    -9.600569    -0.975165    0.231848    1.080481    -9.603618    -0.866232    -10.997108    1.946240    -0.956323    -6.089170    5.178357    -2.685240    -11.526268    0.413391    0.033946    -0.447094    
-8.658244    85.010078    100.292015    -1.528757    -9.528145    -170.265442    -4.427758    -15.597939    1.610678    -0.386729    5.547743    2.236149    0.451341    7.058176    -7.965178    10.258566    -9.906769    -6.006325    -0.747445    17.711203    3.025579    -59.962162    21.567011    -20.975735    0.864382    -7.091660    -9.210754    15.386482    -6.705259    2.365446    7.806262    18.324467    -6.448539    38.634510    43.946564    40.790272    -3.223155    -7.503654    19.320299    -14.723726    -6.614374    -2.687561    -0.584406    -12.128846    -8.588964    0.107002    11.690140    -1.226160    -1.029010    -7.373841    -9.692502    -0.993476    0.200303    1.100832    -9.643813    -0.906382    -10.980052    1.960006    -0.912693    -6.138571    5.272953    -2.668912    -11.452295    0.381608    0.071201    -0.412698    
-8.728625    85.000000    100.295021    -1.500940    -9.526834    -170.330688    -4.413890    -15.545955    1.633549    -0.401520    5.498317    2.255616    0.493383    6.971441    -7.966752    10.302713    -9.972871    -5.996171    -0.727261    17.658911    3.029417    -59.988113    21.198603    -20.796223    0.753808    -7.036040    -9.014890    15.204134    -6.671660    2.304181    7.798736    18.287138    -6.491268    38.579315    44.063702    40.624199    -3.342983    -7.626400    19.594002    -14.757280    -6.710531    -2.668920    -0.719752    -12.411999    -8.686036    0.207917    12.229593    -0.975455    -1.008025    -7.569730    -9.788828    -1.014118    0.172289    1.123761    -9.684967    -0.958587    -10.968999    1.975961    -0.848238    -6.181042    5.369150    -2.654304    -11.372709    0.347964    0.106909    -0.376296    
-8.801817    84.989098    100.298820    -1.468763    -9.522537    -170.406708    -4.399790    -15.491095    1.653815    -0.411086    5.447249    2.272089    0.543195    6.882622    -7.962495    10.341204    -10.042345    -5.981612    -0.701224    17.596775    3.027894    -60.011826    20.810698    -20.617828    0.638033    -6.980480    -8.803754    15.037790    -6.637101    2.247622    7.791853    18.247669    -6.537079    38.549656    44.162418    40.435806    -3.451135    -7.749735    19.859978    -14.802288    -6.810161    -2.638909    -0.852510    -12.700397    -8.775916    0.307285    12.783273    -0.713605    -0.985352    -7.770254    -9.892452    -1.036713    0.147374    1.148849    -9.728373    -1.027567    -10.964856    1.995442    -0.755839    -6.215712    5.470514    -2.641210    -11.284597    0.311390    0.141246    -0.336727    
